STARTFONT 2.1
FONT a skele-ton
SIZE 8 72 72
FONTBOUNDINGBOX 13 16 0 -4
STARTPROPERTIES 9
DEFAULT_CHAR 126
FACE_NAME "a skele-ton"
FONT_ASCENT 12
FONT_DESCENT 4
PIXEL_SIZE 8
POINT_SIZE 80
RESOLUTION_X 72
RESOLUTION_Y 72
_GBDFED_INFO "Edited with gbdfed 1.6."
ENDPROPERTIES
CHARS 95
STARTCHAR 
ENCODING 32
SWIDTH 1125 0
DWIDTH 8 0
BBX 0 0 0 0
BITMAP
ENDCHAR
STARTCHAR !
ENCODING 33
SWIDTH 500 0
DWIDTH 4 0
BBX 2 10 0 0
BITMAP
C0
C0
C0
C0
C0
C0
C0
00
C0
C0
ENDCHAR
STARTCHAR char34
ENCODING 34
SWIDTH 875 0
DWIDTH 7 0
BBX 5 4 0 6
BITMAP
D8
D8
D8
D8
ENDCHAR
STARTCHAR #
ENCODING 35
SWIDTH 1375 0
DWIDTH 11 0
BBX 9 10 0 0
BITMAP
1B00
1B00
7F80
7F80
3600
3600
FF80
FF80
6C00
6C00
ENDCHAR
STARTCHAR $
ENCODING 36
SWIDTH 1250 0
DWIDTH 10 0
BBX 8 14 0 -2
BITMAP
18
18
3E
7E
D8
D8
FE
7F
1B
1B
FF
FC
18
18
ENDCHAR
STARTCHAR %
ENCODING 37
SWIDTH 1625 0
DWIDTH 13 0
BBX 11 10 0 0
BITMAP
7300
FB00
DE00
FE00
7C00
0DC0
1BE0
1B60
33E0
31C0
ENDCHAR
STARTCHAR &
ENCODING 38
SWIDTH 1375 0
DWIDTH 11 0
BBX 9 10 0 0
BITMAP
1C00
3E00
3600
3C00
7800
ED80
CF80
C700
FF00
7D80
ENDCHAR
STARTCHAR '
ENCODING 39
SWIDTH 500 0
DWIDTH 4 0
BBX 2 4 0 6
BITMAP
C0
C0
C0
C0
ENDCHAR
STARTCHAR (
ENCODING 40
SWIDTH 750 0
DWIDTH 6 0
BBX 4 14 0 -4
BITMAP
30
30
60
60
C0
C0
C0
C0
C0
C0
C0
60
70
30
ENDCHAR
STARTCHAR )
ENCODING 41
SWIDTH 750 0
DWIDTH 6 0
BBX 4 14 0 -4
BITMAP
C0
C0
60
60
30
30
30
30
30
30
30
60
E0
C0
ENDCHAR
STARTCHAR *
ENCODING 42
SWIDTH 1000 0
DWIDTH 8 0
BBX 6 5 0 5
BITMAP
30
FC
78
78
CC
ENDCHAR
STARTCHAR +
ENCODING 43
SWIDTH 1000 0
DWIDTH 8 0
BBX 6 6 0 1
BITMAP
30
30
FC
FC
30
30
ENDCHAR
STARTCHAR ,
ENCODING 44
SWIDTH 500 0
DWIDTH 4 0
BBX 2 3 0 -2
BITMAP
40
C0
80
ENDCHAR
STARTCHAR -
ENCODING 45
SWIDTH 875 0
DWIDTH 7 0
BBX 5 2 0 3
BITMAP
F8
F8
ENDCHAR
STARTCHAR .
ENCODING 46
SWIDTH 500 0
DWIDTH 4 0
BBX 2 2 0 0
BITMAP
C0
C0
ENDCHAR
STARTCHAR /
ENCODING 47
SWIDTH 1000 0
DWIDTH 8 0
BBX 6 11 0 -1
BITMAP
04
0C
08
18
18
30
20
60
40
C0
C0
ENDCHAR
STARTCHAR 0
ENCODING 48
SWIDTH 1000 0
DWIDTH 8 0
BBX 6 10 0 0
BITMAP
38
78
CC
CC
CC
CC
CC
CC
78
78
ENDCHAR
STARTCHAR 1
ENCODING 49
SWIDTH 1000 0
DWIDTH 8 0
BBX 6 10 0 0
BITMAP
30
F0
F0
30
30
30
30
30
FC
FC
ENDCHAR
STARTCHAR 2
ENCODING 50
SWIDTH 1125 0
DWIDTH 9 0
BBX 7 10 0 0
BITMAP
3C
FE
C6
06
1C
38
60
C0
FE
FE
ENDCHAR
STARTCHAR 3
ENCODING 51
SWIDTH 1000 0
DWIDTH 8 0
BBX 6 10 0 0
BITMAP
78
FC
CC
0C
78
7C
0C
CC
FC
78
ENDCHAR
STARTCHAR 4
ENCODING 52
SWIDTH 1125 0
DWIDTH 9 0
BBX 7 10 0 0
BITMAP
0C
1C
1C
2C
4C
FE
FE
0C
0C
0C
ENDCHAR
STARTCHAR 5
ENCODING 53
SWIDTH 1000 0
DWIDTH 8 0
BBX 6 10 0 0
BITMAP
FC
FC
C0
F8
FC
0C
0C
8C
F8
70
ENDCHAR
STARTCHAR 6
ENCODING 54
SWIDTH 1000 0
DWIDTH 8 0
BBX 6 10 0 0
BITMAP
18
38
70
E0
F8
FC
CC
CC
FC
78
ENDCHAR
STARTCHAR 7
ENCODING 55
SWIDTH 1125 0
DWIDTH 9 0
BBX 7 10 0 0
BITMAP
FE
FE
04
08
18
10
30
30
60
60
ENDCHAR
STARTCHAR 8
ENCODING 56
SWIDTH 1000 0
DWIDTH 8 0
BBX 6 10 0 0
BITMAP
78
FC
CC
CC
78
78
CC
CC
FC
78
ENDCHAR
STARTCHAR 9
ENCODING 57
SWIDTH 1000 0
DWIDTH 8 0
BBX 6 10 0 0
BITMAP
78
FC
CC
CC
CC
FC
78
18
70
60
ENDCHAR
STARTCHAR :
ENCODING 58
SWIDTH 500 0
DWIDTH 4 0
BBX 2 6 0 1
BITMAP
C0
C0
00
00
C0
C0
ENDCHAR
STARTCHAR ;
ENCODING 59
SWIDTH 625 0
DWIDTH 5 0
BBX 3 8 0 -1
BITMAP
60
60
00
00
00
60
E0
C0
ENDCHAR
STARTCHAR <
ENCODING 60
SWIDTH 750 0
DWIDTH 6 0
BBX 4 6 0 1
BITMAP
10
30
60
C0
60
30
ENDCHAR
STARTCHAR =
ENCODING 61
SWIDTH 875 0
DWIDTH 7 0
BBX 5 6 0 1
BITMAP
F8
F8
00
00
F8
F8
ENDCHAR
STARTCHAR >
ENCODING 62
SWIDTH 750 0
DWIDTH 6 0
BBX 4 6 0 1
BITMAP
80
C0
70
30
60
C0
ENDCHAR
STARTCHAR ?
ENCODING 63
SWIDTH 1125 0
DWIDTH 9 0
BBX 7 10 0 0
BITMAP
78
FC
CE
06
0C
38
30
00
30
30
ENDCHAR
STARTCHAR @
ENCODING 64
SWIDTH 1750 0
DWIDTH 14 0
BBX 12 11 0 -1
BITMAP
1F80
3FE0
7070
E630
DB30
DFF0
CFE0
E000
7180
3F80
1F00
ENDCHAR
STARTCHAR A
ENCODING 65
SWIDTH 1250 0
DWIDTH 10 0
BBX 8 10 0 0
BITMAP
04
0C
1C
1E
36
3E
7E
62
C3
C3
ENDCHAR
STARTCHAR B
ENCODING 66
SWIDTH 1125 0
DWIDTH 9 0
BBX 7 10 0 0
BITMAP
F0
FC
CC
CC
F8
FC
C6
CE
FC
F8
ENDCHAR
STARTCHAR C
ENCODING 67
SWIDTH 1250 0
DWIDTH 10 0
BBX 8 10 0 0
BITMAP
0F
3F
33
60
E0
C0
C0
C3
7F
3C
ENDCHAR
STARTCHAR D
ENCODING 68
SWIDTH 1125 0
DWIDTH 9 0
BBX 7 10 0 0
BITMAP
C0
F0
D8
CC
C6
C6
C6
CE
FC
78
ENDCHAR
STARTCHAR E
ENCODING 69
SWIDTH 1125 0
DWIDTH 9 0
BBX 7 10 0 0
BITMAP
FE
FE
C0
C0
FE
FE
C0
C0
FE
7E
ENDCHAR
STARTCHAR F
ENCODING 70
SWIDTH 1000 0
DWIDTH 8 0
BBX 6 10 0 0
BITMAP
FC
FC
C0
C0
FC
FC
C0
C0
C0
C0
ENDCHAR
STARTCHAR G
ENCODING 71
SWIDTH 1375 0
DWIDTH 11 0
BBX 9 10 0 0
BITMAP
1E00
3F00
7300
6000
C000
CF80
DF80
C380
FF00
7C00
ENDCHAR
STARTCHAR H
ENCODING 72
SWIDTH 1250 0
DWIDTH 10 0
BBX 8 10 0 0
BITMAP
C3
C3
C3
C3
FF
FF
C3
C3
C3
C3
ENDCHAR
STARTCHAR I
ENCODING 73
SWIDTH 1000 0
DWIDTH 8 0
BBX 6 10 0 0
BITMAP
FC
FC
30
30
30
30
30
30
FC
FC
ENDCHAR
STARTCHAR J
ENCODING 74
SWIDTH 1250 0
DWIDTH 10 0
BBX 8 11 0 -1
BITMAP
7F
7F
0C
0C
0C
0C
0C
CC
CC
7C
38
ENDCHAR
STARTCHAR K
ENCODING 75
SWIDTH 1125 0
DWIDTH 9 0
BBX 7 10 0 0
BITMAP
C6
CE
DC
F8
F0
E0
F0
DC
CE
C6
ENDCHAR
STARTCHAR L
ENCODING 76
SWIDTH 1000 0
DWIDTH 8 0
BBX 6 10 0 0
BITMAP
C0
C0
C0
C0
C0
C0
C0
C0
FC
FC
ENDCHAR
STARTCHAR M
ENCODING 77
SWIDTH 1500 0
DWIDTH 12 0
BBX 10 10 0 0
BITMAP
3180
3180
3180
7B80
7B80
7AC0
7EC0
CEC0
CCC0
CCC0
ENDCHAR
STARTCHAR N
ENCODING 78
SWIDTH 1375 0
DWIDTH 11 0
BBX 9 10 0 0
BITMAP
C180
C180
E180
F180
D180
C980
CD80
C780
C380
C180
ENDCHAR
STARTCHAR O
ENCODING 79
SWIDTH 1500 0
DWIDTH 12 0
BBX 10 10 0 0
BITMAP
1F00
3F80
71C0
E0C0
C0C0
C0C0
C1C0
E380
7F00
3E00
ENDCHAR
STARTCHAR P
ENCODING 80
SWIDTH 875 0
DWIDTH 7 0
BBX 5 10 0 0
BITMAP
F0
F8
D8
D8
F8
F0
C0
C0
C0
C0
ENDCHAR
STARTCHAR Q
ENCODING 81
SWIDTH 1625 0
DWIDTH 13 0
BBX 11 13 0 -3
BITMAP
0F00
3FC0
70C0
E0E0
C060
C060
C060
E660
76C0
3F80
1FC0
00E0
0060
ENDCHAR
STARTCHAR R
ENCODING 82
SWIDTH 1000 0
DWIDTH 8 0
BBX 6 10 0 0
BITMAP
F0
F8
DC
CC
CC
F8
F0
D8
CC
C4
ENDCHAR
STARTCHAR S
ENCODING 83
SWIDTH 1250 0
DWIDTH 10 0
BBX 8 10 0 0
BITMAP
1C
3E
60
60
7E
3F
03
C7
FE
7C
ENDCHAR
STARTCHAR T
ENCODING 84
SWIDTH 1250 0
DWIDTH 10 0
BBX 8 10 0 0
BITMAP
FF
FF
18
18
18
18
18
18
18
18
ENDCHAR
STARTCHAR U
ENCODING 85
SWIDTH 1250 0
DWIDTH 10 0
BBX 8 10 0 0
BITMAP
C3
C3
C3
C3
C3
C3
C6
E6
7C
38
ENDCHAR
STARTCHAR V
ENCODING 86
SWIDTH 1375 0
DWIDTH 11 0
BBX 9 10 0 0
BITMAP
C180
C380
E300
6700
6600
6600
3C00
3C00
1C00
1800
ENDCHAR
STARTCHAR W
ENCODING 87
SWIDTH 1875 0
DWIDTH 15 0
BBX 13 10 0 0
BITMAP
C618
C618
C630
6E30
6F60
7B60
7B40
39C0
31C0
3180
ENDCHAR
STARTCHAR X
ENCODING 88
SWIDTH 1375 0
DWIDTH 11 0
BBX 9 10 0 0
BITMAP
C180
E380
7700
3E00
1C00
1C00
3E00
7300
E380
C180
ENDCHAR
STARTCHAR Y
ENCODING 89
SWIDTH 1250 0
DWIDTH 10 0
BBX 8 10 0 0
BITMAP
C3
E3
66
66
3C
1C
1C
18
38
30
ENDCHAR
STARTCHAR Z
ENCODING 90
SWIDTH 1250 0
DWIDTH 10 0
BBX 8 10 0 0
BITMAP
FF
FF
04
0C
18
30
20
60
FF
FF
ENDCHAR
STARTCHAR [
ENCODING 91
SWIDTH 750 0
DWIDTH 6 0
BBX 4 14 0 -4
BITMAP
F0
F0
C0
C0
C0
C0
C0
C0
C0
C0
C0
C0
F0
F0
ENDCHAR
STARTCHAR \
ENCODING 92
SWIDTH 1000 0
DWIDTH 8 0
BBX 6 11 0 -1
BITMAP
C0
C0
60
60
30
30
10
18
18
0C
0C
ENDCHAR
STARTCHAR ]
ENCODING 93
SWIDTH 750 0
DWIDTH 6 0
BBX 4 14 0 -4
BITMAP
F0
F0
30
30
30
30
30
30
30
30
30
30
F0
F0
ENDCHAR
STARTCHAR ^
ENCODING 94
SWIDTH 1000 0
DWIDTH 8 0
BBX 6 3 0 8
BITMAP
30
78
CC
ENDCHAR
STARTCHAR _
ENCODING 95
SWIDTH 1375 0
DWIDTH 11 0
BBX 9 1 0 -2
BITMAP
FF80
ENDCHAR
STARTCHAR `
ENCODING 96
SWIDTH 625 0
DWIDTH 5 0
BBX 3 3 0 8
BITMAP
C0
60
60
ENDCHAR
STARTCHAR a
ENCODING 97
SWIDTH 1000 0
DWIDTH 8 0
BBX 6 7 0 0
BITMAP
38
7C
EC
CC
CC
FC
7C
ENDCHAR
STARTCHAR b
ENCODING 98
SWIDTH 1000 0
DWIDTH 8 0
BBX 6 10 0 0
BITMAP
C0
C0
C0
F8
FC
CC
CC
CC
F8
F0
ENDCHAR
STARTCHAR c
ENCODING 99
SWIDTH 1000 0
DWIDTH 8 0
BBX 6 7 0 0
BITMAP
38
7C
E4
C0
C4
FC
78
ENDCHAR
STARTCHAR d
ENCODING 100
SWIDTH 1125 0
DWIDTH 9 0
BBX 7 10 0 0
BITMAP
06
06
06
3E
7E
C6
C6
C6
FE
3E
ENDCHAR
STARTCHAR e
ENCODING 101
SWIDTH 1000 0
DWIDTH 8 0
BBX 6 7 0 0
BITMAP
38
7C
CC
DC
F0
FC
78
ENDCHAR
STARTCHAR f
ENCODING 102
SWIDTH 1000 0
DWIDTH 8 0
BBX 6 11 0 -1
BITMAP
1C
3C
30
FC
FC
30
30
30
30
30
30
ENDCHAR
STARTCHAR g
ENCODING 103
SWIDTH 1000 0
DWIDTH 8 0
BBX 6 11 0 -4
BITMAP
38
7C
CC
CC
DC
FC
7C
0C
1C
F8
F0
ENDCHAR
STARTCHAR h
ENCODING 104
SWIDTH 1000 0
DWIDTH 8 0
BBX 6 10 0 0
BITMAP
C0
C0
C0
F8
FC
EC
CC
CC
CC
CC
ENDCHAR
STARTCHAR i
ENCODING 105
SWIDTH 500 0
DWIDTH 4 0
BBX 2 10 0 0
BITMAP
C0
C0
00
C0
C0
C0
C0
C0
C0
C0
ENDCHAR
STARTCHAR j
ENCODING 106
SWIDTH 875 0
DWIDTH 7 0
BBX 5 14 0 -4
BITMAP
18
18
00
18
18
18
18
18
18
18
D8
D8
78
70
ENDCHAR
STARTCHAR k
ENCODING 107
SWIDTH 1000 0
DWIDTH 8 0
BBX 6 10 0 0
BITMAP
C0
C0
C0
CC
DC
F8
F0
D8
CC
CC
ENDCHAR
STARTCHAR l
ENCODING 108
SWIDTH 500 0
DWIDTH 4 0
BBX 2 10 0 0
BITMAP
C0
C0
C0
C0
C0
C0
C0
C0
C0
C0
ENDCHAR
STARTCHAR m
ENCODING 109
SWIDTH 1250 0
DWIDTH 10 0
BBX 8 7 0 0
BITMAP
DF
FF
FB
DB
DB
DB
DB
ENDCHAR
STARTCHAR n
ENCODING 110
SWIDTH 1000 0
DWIDTH 8 0
BBX 6 7 0 0
BITMAP
D8
FC
EC
CC
CC
CC
CC
ENDCHAR
STARTCHAR o
ENCODING 111
SWIDTH 1000 0
DWIDTH 8 0
BBX 6 7 0 0
BITMAP
38
7C
CC
CC
CC
F8
70
ENDCHAR
STARTCHAR p
ENCODING 112
SWIDTH 1000 0
DWIDTH 8 0
BBX 6 11 0 -4
BITMAP
F8
FC
CC
CC
CC
FC
F8
C0
C0
C0
C0
ENDCHAR
STARTCHAR q
ENCODING 113
SWIDTH 1000 0
DWIDTH 8 0
BBX 6 11 0 -4
BITMAP
3C
7C
EC
CC
CC
FC
7C
0C
0C
0C
0C
ENDCHAR
STARTCHAR r
ENCODING 114
SWIDTH 1000 0
DWIDTH 8 0
BBX 6 7 0 0
BITMAP
FC
FC
EC
C0
C0
C0
C0
ENDCHAR
STARTCHAR s
ENCODING 115
SWIDTH 875 0
DWIDTH 7 0
BBX 5 7 0 0
BITMAP
78
F8
C0
70
18
F8
F0
ENDCHAR
STARTCHAR t
ENCODING 116
SWIDTH 1000 0
DWIDTH 8 0
BBX 6 9 0 0
BITMAP
30
30
FC
FC
30
30
30
30
30
ENDCHAR
STARTCHAR u
ENCODING 117
SWIDTH 1000 0
DWIDTH 8 0
BBX 6 7 0 0
BITMAP
CC
CC
CC
CC
CC
FC
7C
ENDCHAR
STARTCHAR v
ENCODING 118
SWIDTH 1000 0
DWIDTH 8 0
BBX 6 7 0 0
BITMAP
CC
CC
78
78
78
30
30
ENDCHAR
STARTCHAR w
ENCODING 119
SWIDTH 1250 0
DWIDTH 10 0
BBX 8 7 0 0
BITMAP
DB
DB
DB
FA
EE
6E
44
ENDCHAR
STARTCHAR x
ENCODING 120
SWIDTH 1125 0
DWIDTH 9 0
BBX 7 7 0 0
BITMAP
C6
EE
7C
38
7C
EE
C6
ENDCHAR
STARTCHAR y
ENCODING 121
SWIDTH 1125 0
DWIDTH 9 0
BBX 7 11 0 -4
BITMAP
C6
CE
6C
6C
38
38
38
30
70
60
60
ENDCHAR
STARTCHAR z
ENCODING 122
SWIDTH 1000 0
DWIDTH 8 0
BBX 6 7 0 0
BITMAP
FC
FC
18
30
60
FC
FC
ENDCHAR
STARTCHAR {
ENCODING 123
SWIDTH 875 0
DWIDTH 7 0
BBX 5 14 0 -4
BITMAP
38
78
60
60
60
60
C0
E0
60
60
60
60
38
38
ENDCHAR
STARTCHAR |
ENCODING 124
SWIDTH 500 0
DWIDTH 4 0
BBX 2 14 0 -4
BITMAP
C0
C0
C0
C0
C0
C0
C0
C0
C0
C0
C0
C0
C0
C0
ENDCHAR
STARTCHAR }
ENCODING 125
SWIDTH 875 0
DWIDTH 7 0
BBX 5 14 0 -4
BITMAP
E0
F0
30
30
30
30
18
30
30
30
30
30
E0
E0
ENDCHAR
STARTCHAR ~
ENCODING 126
SWIDTH 1125 0
DWIDTH 9 0
BBX 7 3 0 3
BITMAP
72
D6
8C
ENDCHAR
ENDFONT
